<svg class="inline mb-1" xmlns="http://www.w3.org/2000/svg" viewBox="0 0 128 128" width="{{ .width }}" height="{{ .height }}"><path fill="#fff" d="M77.5,91.5H52.3c-9.4,0-17-7.6-17-17v-38h59.3v38C94.5,83.9,86.9,91.5,77.5,91.5"/><path fill="#ee7778" d="M35.3 45.4L94.5 45.4 94.5 53.4 35.3 53.4 35.3 45.4M35.3 58.2L94.5 58.2 94.5 66.2 35.3 66.2 35.3 58.2"/><path fill="#cecfd0" d="M94.5,36.5H81.8v8.9h12.7v8H81.8v4.8h12.7v8H81.8v8.2c0,9.5-7.6,17.1-16.899,17.1h12.6 c2.476,0,4.827-0.527,6.949-1.476C90.359,87.352,94.5,81.339,94.5,74.4V36.5"/><path fill="#c16264" d="M94.5 45.4L81.8 45.4 81.8 53.4 94.5 53.4 94.5 45.4M94.5 58.2L81.8 58.2 81.8 66.2 94.5 66.2 94.5 58.2"/><path fill="#454b54" d="M77.5,94.5H52.3c-11,0-20-9-20-20v-38c0-1.7,1.3-3,3-3h59.2c1.7,0,3,1.3,3,3v38 C97.5,85.5,88.5,94.5,77.5,94.5z M38.3,39.5v35c0,7.7,6.3,14,14,14h25.2c7.7,0,14-6.3,14-14v-35H38.3z"/><path fill="#454b54" d="M98.8 39.5H31c-1.7 0-3-1.3-3-3s1.3-3 3-3h67.7c1.7 0 3 1.3 3 3S100.4 39.5 98.8 39.5zM94.5 77.5c-1.1 0-2.2-.6-2.7-1.6-.7-1.5-.2-3.301 1.3-4l14.9-7.5c2.1-1.101 3.5-3.2 3.5-5.601 0-3.5-2.8-6.3-6.3-6.3H94.5c-1.7 0-3-1.3-3-3s1.3-3 3-3h10.7c6.8 0 12.3 5.5 12.3 12.3 0 4.7-2.6 8.9-6.7 11L95.9 77.3C95.4 77.4 95 77.5 94.5 77.5z"/></svg>