<svg fill="currentColor" xmlns="http://www.w3.org/2000/svg" viewBox="0 0 48 48" width="{{ .width }}" height="{{ .height }}"><path d="M 24 3.9980469 C 12.972 3.9980469 4 12.970047 4 23.998047 C 4 27.185047 4.7714219 30.342922 6.2324219 33.169922 L 4.0917969 40.828125 C 3.8507969 41.696125 4.096375 42.630578 4.734375 43.267578 C 5.209375 43.742578 5.8499062 44 6.5039062 44 C 6.7289062 44 6.9518281 43.970203 7.1738281 43.908203 L 14.835938 41.769531 C 17.662937 43.229531 20.817 43.998047 24 43.998047 C 35.028 43.998047 44 35.026047 44 23.998047 C 44 12.970047 35.028 3.9980469 24 3.9980469 z M 20.5 13 L 26.5 13 C 27.328 13 28 13.671 28 14.5 L 28 17 C 28 19.096 27.072078 21.063437 25.455078 22.398438 C 25.176078 22.629438 24.837953 22.742188 24.501953 22.742188 C 24.068953 22.742188 23.63975 22.556266 23.34375 22.197266 C 22.81575 21.558266 22.905922 20.613937 23.544922 20.085938 C 24.469922 19.322937 25 18.198 25 17 L 25 16 L 20.5 16 C 19.672 16 19 15.329 19 14.5 C 19 13.671 19.672 13 20.5 13 z M 31.5 13 C 32.328 13 33 13.671 33 14.5 L 33 18 L 34.5 18 C 35.328 18 36 18.671 36 19.5 C 36 20.329 35.328 21 34.5 21 L 33 21 L 33 27.5 C 33 28.329 32.328 29 31.5 29 C 30.672 29 30 28.329 30 27.5 L 30 14.5 C 30 13.671 30.672 13 31.5 13 z M 18.5 18 C 19.121 18 19.677391 18.381938 19.900391 18.960938 L 24.900391 31.960938 C 25.197391 32.734938 24.811109 33.603391 24.037109 33.900391 C 23.860109 33.968391 23.68 34 23.5 34 C 22.897 34 22.328609 33.633109 22.099609 33.037109 L 20.931641 30 L 16.068359 30 L 14.900391 33.039062 C 14.602391 33.813063 13.731891 34.198391 12.962891 33.900391 C 12.189891 33.603391 11.802609 32.735891 12.099609 31.962891 L 17.099609 18.962891 C 17.322609 18.382891 17.879 18 18.5 18 z M 18.5 23.679688 L 17.222656 27 L 19.777344 27 L 18.5 23.679688 z"/></svg>